<svg width="25" height="24" viewBox="0 0 25 24" fill="none" xmlns="http://www.w3.org/2000/svg">
<path fill-rule="evenodd" clip-rule="evenodd" d="M10.2317 4.08446C11.0121 3.91722 11.818 3.90728 12.6022 4.05525C13.3865 4.20321 14.1333 4.50609 14.7991 4.94618C15.4649 5.38627 16.0362 5.95471 16.4797 6.61826C16.7747 7.05973 17.0092 7.53739 17.1778 8.03841C17.6981 8.09756 18.2095 8.22468 18.6987 8.41739C19.4366 8.70798 20.1094 9.14195 20.6785 9.6942C21.2476 10.2464 21.7015 10.906 22.0141 11.6348C22.3267 12.3636 22.4918 13.1471 22.4997 13.94C22.5076 14.7329 22.3583 15.5196 22.0603 16.2545C21.7624 16.9893 21.3217 17.6579 20.7638 18.2214C20.2059 18.7849 19.5418 19.2322 18.81 19.5375C18.0781 19.8428 17.293 20 16.5 20H7.5C6.17392 20 4.90215 19.4732 3.96447 18.5355C3.0268 17.5979 2.50001 16.3261 2.5 15M12.2314 6.02057C11.7085 5.92192 11.1712 5.92854 10.6508 6.04005C10.1305 6.15157 9.63763 6.36574 9.20106 6.67003C8.7645 6.97432 8.393 7.36262 8.10832 7.81221C7.82363 8.2618 7.63146 8.76366 7.54307 9.28841C7.45467 9.81317 7.47182 10.3503 7.5935 10.8683C7.6545 11.128 7.60923 11.4012 7.46777 11.6274C7.3263 11.8535 7.10037 12.0137 6.8402 12.0725C6.1758 12.2224 5.58219 12.594 5.15691 13.126C4.73163 13.658 4.49997 14.3188 4.5 14.9999V15C4.5 15.7956 4.81607 16.5587 5.37868 17.1213C5.94129 17.6839 6.70435 18 7.5 18H16.5C17.0287 18 17.5521 17.8952 18.04 17.6917C18.5279 17.4881 18.9706 17.1899 19.3425 16.8142C19.7145 16.4386 20.0083 15.9929 20.2069 15.503C20.4055 15.0131 20.5051 14.4886 20.4998 13.96C20.4945 13.4314 20.3845 12.909 20.1761 12.4232C19.9677 11.9373 19.6651 11.4976 19.2857 11.1295C18.9063 10.7613 18.4577 10.472 17.9658 10.2783C17.4739 10.0845 16.9485 9.99023 16.42 10.0008C15.9337 10.0105 15.5109 9.66889 15.4183 9.19136C15.317 8.66895 15.1125 8.17198 14.8168 7.72954C14.5212 7.2871 14.1402 6.90807 13.6963 6.61463C13.2523 6.32119 12.7543 6.11923 12.2314 6.02057ZM10.2317 4.08446C9.45134 4.2517 8.71217 4.5729 8.05743 5.02926L10.2317 4.08446ZM8.05743 5.02926C7.40269 5.48562 6.84554 6.06798 6.41858 6.74225L8.05743 5.02926ZM6.41858 6.74225C5.99162 7.41653 5.70343 8.16919 5.57085 8.95619L6.41858 6.74225ZM5.57085 8.95619C5.48954 9.43887 5.46778 9.92853 5.50521 10.4143L5.57085 8.95619ZM5.50521 10.4143C4.76309 10.7373 4.10592 11.2376 3.5947 11.8772C2.886 12.7637 2.49995 13.865 2.5 15" fill="#F8FAFC"/>
</svg>
