<svg width="60" height="60" viewBox="0 0 60 60" fill="none" xmlns="http://www.w3.org/2000/svg">
<rect width="60" height="60" rx="30" fill="#0DCEDA"/>
<path fill-rule="evenodd" clip-rule="evenodd" d="M30.0001 21.6C30.3184 21.6 30.6236 21.7264 30.8486 21.9514C31.0737 22.1765 31.2001 22.4817 31.2001 22.8V28.8H37.2001C37.5184 28.8 37.8236 28.9264 38.0486 29.1514C38.2737 29.3765 38.4001 29.6817 38.4001 30C38.4001 30.3182 38.2737 30.6235 38.0486 30.8485C37.8236 31.0735 37.5184 31.2 37.2001 31.2H31.2001V37.2C31.2001 37.5182 31.0737 37.8235 30.8486 38.0485C30.6236 38.2735 30.3184 38.4 30.0001 38.4C29.6818 38.4 29.3766 38.2735 29.1516 38.0485C28.9265 37.8235 28.8001 37.5182 28.8001 37.2V31.2H22.8001C22.4818 31.2 22.1766 31.0735 21.9516 30.8485C21.7265 30.6235 21.6001 30.3182 21.6001 30C21.6001 29.6817 21.7265 29.3765 21.9516 29.1514C22.1766 28.9264 22.4818 28.8 22.8001 28.8H28.8001V22.8C28.8001 22.4817 28.9265 22.1765 29.1516 21.9514C29.3766 21.7264 29.6818 21.6 30.0001 21.6Z" fill="#F8FAFC"/>
</svg>
