<svg width="24" height="25" viewBox="0 0 24 25" fill="none" xmlns="http://www.w3.org/2000/svg">
<path fill-rule="evenodd" clip-rule="evenodd" d="M3.59961 6.49999C3.59961 6.18173 3.72604 5.8765 3.95108 5.65146C4.17612 5.42642 4.48135 5.29999 4.79961 5.29999H19.1996C19.5179 5.29999 19.8231 5.42642 20.0481 5.65146C20.2732 5.8765 20.3996 6.18173 20.3996 6.49999C20.3996 6.81825 20.2732 7.12347 20.0481 7.34852C19.8231 7.57356 19.5179 7.69999 19.1996 7.69999H4.79961C4.48135 7.69999 4.17612 7.57356 3.95108 7.34852C3.72604 7.12347 3.59961 6.81825 3.59961 6.49999ZM3.59961 12.5C3.59961 12.1817 3.72604 11.8765 3.95108 11.6515C4.17612 11.4264 4.48135 11.3 4.79961 11.3H19.1996C19.5179 11.3 19.8231 11.4264 20.0481 11.6515C20.2732 11.8765 20.3996 12.1817 20.3996 12.5C20.3996 12.8182 20.2732 13.1235 20.0481 13.3485C19.8231 13.5736 19.5179 13.7 19.1996 13.7H4.79961C4.48135 13.7 4.17612 13.5736 3.95108 13.3485C3.72604 13.1235 3.59961 12.8182 3.59961 12.5ZM3.59961 18.5C3.59961 18.1817 3.72604 17.8765 3.95108 17.6515C4.17612 17.4264 4.48135 17.3 4.79961 17.3H19.1996C19.5179 17.3 19.8231 17.4264 20.0481 17.6515C20.2732 17.8765 20.3996 18.1817 20.3996 18.5C20.3996 18.8182 20.2732 19.1235 20.0481 19.3485C19.8231 19.5736 19.5179 19.7 19.1996 19.7H4.79961C4.48135 19.7 4.17612 19.5736 3.95108 19.3485C3.72604 19.1235 3.59961 18.8182 3.59961 18.5Z" fill="#F8FAFC"/>
</svg>
