<svg width="73" height="73" viewBox="0 0 73 73" fill="none" xmlns="http://www.w3.org/2000/svg">
<path fill-rule="evenodd" clip-rule="evenodd" d="M65.4 36.5C65.4 44.1383 62.3657 51.4636 56.9647 56.8647C51.5637 62.2657 44.2383 65.3 36.6 65.3C28.9618 65.3 21.6364 62.2657 16.2353 56.8647C10.8343 51.4636 7.80002 44.1383 7.80002 36.5C7.80002 28.8618 10.8343 21.5364 16.2353 16.1353C21.6364 10.7343 28.9618 7.70001 36.6 7.70001C44.2383 7.70001 51.5637 10.7343 56.9647 16.1353C62.3657 21.5364 65.4 28.8618 65.4 36.5ZM43.8 25.7C43.8 27.6096 43.0415 29.4409 41.6912 30.7912C40.3409 32.1414 38.5096 32.9 36.6 32.9C34.6905 32.9 32.8591 32.1414 31.5089 30.7912C30.1586 29.4409 29.4 27.6096 29.4 25.7C29.4 23.7905 30.1586 21.9591 31.5089 20.6088C32.8591 19.2586 34.6905 18.5 36.6 18.5C38.5096 18.5 40.3409 19.2586 41.6912 20.6088C43.0415 21.9591 43.8 23.7905 43.8 25.7ZM36.6 40.1C33.1534 40.0993 29.779 41.0882 26.8779 42.9491C23.9768 44.81 21.671 47.4646 20.2344 50.5976C22.2601 52.9542 24.7714 54.8448 27.5962 56.1397C30.421 57.4347 33.4925 58.1034 36.6 58.1C39.7075 58.1034 42.779 57.4347 45.6038 56.1397C48.4286 54.8448 50.94 52.9542 52.9656 50.5976C51.5291 47.4646 49.2232 44.81 46.3221 42.9491C43.421 41.0882 40.0467 40.0993 36.6 40.1Z" fill="#1E293B"/>
</svg>
