<svg width="24" height="24" viewBox="0 0 24 24" fill="none" xmlns="http://www.w3.org/2000/svg">
<path d="M10.8001 2.40002C10.4818 2.40002 10.1766 2.52645 9.95157 2.7515C9.72653 2.97654 9.6001 3.28176 9.6001 3.60002C9.6001 3.91828 9.72653 4.22351 9.95157 4.44855C10.1766 4.6736 10.4818 4.80002 10.8001 4.80002H13.2001C13.5184 4.80002 13.8236 4.6736 14.0486 4.44855C14.2737 4.22351 14.4001 3.91828 14.4001 3.60002C14.4001 3.28176 14.2737 2.97654 14.0486 2.7515C13.8236 2.52645 13.5184 2.40002 13.2001 2.40002H10.8001Z" fill="#0DCEDA"/>
<path fill-rule="evenodd" clip-rule="evenodd" d="M4.7998 5.99998C4.7998 5.36346 5.05266 4.75301 5.50275 4.30292C5.95284 3.85283 6.56329 3.59998 7.1998 3.59998C7.1998 4.55475 7.57909 5.47043 8.25422 6.14556C8.92935 6.82069 9.84503 7.19998 10.7998 7.19998H13.1998C14.1546 7.19998 15.0703 6.82069 15.7454 6.14556C16.4205 5.47043 16.7998 4.55475 16.7998 3.59998C17.4363 3.59998 18.0468 3.85283 18.4969 4.30292C18.9469 4.75301 19.1998 5.36346 19.1998 5.99998V19.2C19.1998 19.8365 18.9469 20.4469 18.4969 20.897C18.0468 21.3471 17.4363 21.6 16.7998 21.6H7.1998C6.56329 21.6 5.95284 21.3471 5.50275 20.897C5.05266 20.4469 4.7998 19.8365 4.7998 19.2V5.99998ZM16.4482 12.8484C16.6668 12.6221 16.7877 12.3189 16.785 12.0043C16.7823 11.6897 16.6561 11.3887 16.4336 11.1662C16.2111 10.9437 15.9101 10.8175 15.5955 10.8148C15.2809 10.812 14.9777 10.933 14.7514 11.1516L10.7998 15.1032L9.2482 13.5516C9.02188 13.333 8.71876 13.212 8.40412 13.2148C8.08949 13.2175 7.78851 13.3437 7.56602 13.5662C7.34353 13.7887 7.21733 14.0897 7.2146 14.4043C7.21186 14.7189 7.33282 15.0221 7.5514 15.2484L9.95141 17.6484C10.1764 17.8733 10.4816 17.9997 10.7998 17.9997C11.118 17.9997 11.4232 17.8733 11.6482 17.6484L16.4482 12.8484Z" fill="#0DCEDA"/>
</svg>
